<svg version="1.1" id="Layer_1" xmlns="http://www.w3.org/2000/svg" xmlns:xlink="http://www.w3.org/1999/xlink" x="0px" y="0px"
	 width="100%" viewBox="0 0 496 496" enable-background="new 0 0 496 496" xml:space="preserve">
<path fill="#000000" opacity="1.000000" stroke="none" 
	d="
M316.859039,277.433533 
	C311.680023,289.860107 302.065643,294.904572 289.587128,295.321411 
	C283.275330,295.532257 276.948212,295.250488 270.632477,295.391083 
	C267.272552,295.465881 265.802490,294.220673 265.817902,290.765167 
	C265.889191,274.801941 265.833862,258.838196 265.832397,242.874619 
	C265.832184,240.746262 266.102722,238.709579 268.912170,238.735245 
	C277.711395,238.815643 286.629852,237.583679 295.285553,239.276855 
	C313.697113,242.878433 322.179504,258.025696 316.859039,277.433533 
M287.393799,251.287552 
	C284.484253,252.017532 279.635406,249.095657 279.476868,255.079163 
	C279.265717,263.049133 279.441162,271.028778 279.389404,279.003876 
	C279.371094,281.823517 280.805786,282.849762 283.434143,282.744629 
	C284.927094,282.684906 286.424744,282.755951 287.919617,282.729126 
	C297.928833,282.549652 304.328339,276.694214 304.636749,267.445984 
	C304.949524,258.068481 298.631989,251.831619 287.393799,251.287552 
z"/>
<path fill="#000000" opacity="1.000000" stroke="none" 
	d="
M240.792236,281.666504 
	C244.022369,281.545898 245.211624,282.958618 245.188400,285.611237 
	C245.172348,287.443909 245.087662,289.286346 245.235947,291.107941 
	C245.560760,295.097992 243.628998,296.278931 239.869797,296.271301 
	C201.873932,296.194153 163.877686,296.173248 125.882057,296.296814 
	C121.589417,296.310791 120.489906,294.624725 120.590866,290.662933 
	C120.852753,280.385498 119.900337,281.681213 129.328003,281.669800 
	C166.324036,281.625031 203.320160,281.655121 240.792236,281.666504 
z"/>
<path fill="#000000" opacity="1.000000" stroke="none" 
	d="
M336.000122,203.644897 
	C350.817261,203.646835 365.138184,203.836136 379.449432,203.547516 
	C384.315216,203.449402 385.367615,205.430969 385.273926,209.730713 
	C385.106384,217.423050 385.054626,217.880798 379.367584,217.888306 
	C341.743561,217.937927 304.119324,217.873978 266.495605,217.997253 
	C261.957855,218.012115 260.407959,216.493179 260.560974,211.899780 
	C260.835388,203.662216 260.582703,203.650452 269.075195,203.649277 
	C291.216827,203.646194 313.358459,203.646317 336.000122,203.644897 
z"/>
<path fill="#000000" opacity="1.000000" stroke="none" 
	d="
M126.626457,255.423248 
	C133.361023,238.026062 140.115295,221.026794 146.762344,203.985687 
	C147.783859,201.366837 149.479828,200.249954 152.100189,200.694153 
	C155.586792,201.285202 160.289932,198.527664 162.279846,203.441971 
	C169.268539,220.701401 176.012772,238.059799 182.829254,255.388733 
	C182.934921,255.657349 182.778412,256.029114 182.709183,256.684875 
	C178.965378,258.013245 175.002823,257.257721 171.123672,257.173706 
	C168.584900,257.118774 168.119278,254.756790 167.602249,252.900345 
	C166.524643,249.030945 164.133606,247.570877 160.197769,247.965485 
	C157.725876,248.213318 155.195847,248.175110 152.714752,247.977875 
	C147.238220,247.542496 142.297470,247.765182 141.152359,254.737946 
	C141.033035,255.464523 140.288452,256.597870 139.731827,256.662506 
	C135.323929,257.174164 130.790146,258.889282 126.626457,255.423248 
M151.183716,227.572983 
	C150.311340,230.324753 148.570587,232.845978 148.702576,236.143661 
	C152.930023,237.055405 156.894455,237.007004 161.227554,236.146027 
	C159.585892,230.383194 157.681763,225.101639 154.895065,219.936035 
	C152.740067,222.065079 152.469772,224.647888 151.183716,227.572983 
z"/>
<path fill="#000000" opacity="1.000000" stroke="none" 
	d="
M341.980530,286.094727 
	C347.699738,271.656525 353.439178,257.638000 358.762604,243.463242 
	C360.313873,239.332657 362.771912,238.401123 366.700958,238.595032 
	C370.675446,238.791183 374.237183,238.178375 376.164215,243.419724 
	C381.847626,258.877899 388.167633,274.101685 394.194305,289.434570 
	C394.846252,291.093140 395.917084,292.719482 395.259033,294.846039 
	C391.736786,295.832520 388.075531,295.272430 384.455078,295.272705 
	C381.347107,295.272919 380.811371,292.562500 380.180573,290.472687 
	C379.127411,286.983368 377.034637,285.712677 373.524994,285.952301 
	C370.707214,286.144623 367.844208,286.199921 365.038391,285.929993 
	C359.552917,285.402374 355.080505,286.119507 353.887604,292.687012 
	C353.563812,294.469604 352.132538,295.379486 350.175598,295.346649 
	C346.705719,295.288422 343.234161,295.330383 339.508453,295.330383 
	C339.039856,291.672729 341.099335,289.226654 341.980530,286.094727 
M366.698273,274.745026 
	C368.185577,274.720673 369.673340,274.712158 371.160065,274.667969 
	C373.057373,274.611603 374.132050,273.546326 373.396393,271.792694 
	C371.509247,267.294159 370.595062,262.348389 367.293579,257.756378 
	C364.488770,263.319824 362.537933,268.589783 360.872009,274.415680 
	C362.946472,274.550232 364.407288,274.644958 366.698273,274.745026 
z"/>
<path fill="#000000" opacity="1.000000" stroke="none" 
	d="
M234.277924,208.082214 
	C234.281006,217.382172 234.346771,226.191589 234.269547,234.999756 
	C234.122055,251.825134 221.742798,261.337250 205.438400,257.190826 
	C204.688538,257.000153 203.575653,256.586823 203.405670,256.037659 
	C202.405670,252.806625 202.256561,249.372726 203.382858,246.251251 
	C204.316360,243.664124 207.138031,244.749435 209.153839,244.703369 
	C218.108368,244.498718 220.568863,242.095078 220.634430,232.960464 
	C220.696457,224.318222 220.928009,215.663010 220.547302,207.037231 
	C220.325348,202.007965 221.877808,200.284821 226.971939,200.549759 
	C234.166977,200.923996 234.183029,200.615402 234.277924,208.082214 
z"/>
</svg>